<svg width="51" height="51" viewBox="0 0 51 51" fill="none" xmlns="http://www.w3.org/2000/svg">
<path d="M17 8.5V42.5M34 8.5V42.5M8.5 17H17M8.5 34H17M8.5 25.5H42.5M34 17H42.5M34 34H42.5M8.5 12.75C8.5 11.6228 8.94777 10.5418 9.7448 9.7448C10.5418 8.94777 11.6228 8.5 12.75 8.5H38.25C39.3772 8.5 40.4582 8.94777 41.2552 9.7448C42.0522 10.5418 42.5 11.6228 42.5 12.75V38.25C42.5 39.3772 42.0522 40.4582 41.2552 41.2552C40.4582 42.0522 39.3772 42.5 38.25 42.5H12.75C11.6228 42.5 10.5418 42.0522 9.7448 41.2552C8.94777 40.4582 8.5 39.3772 8.5 38.25V12.75Z" stroke="white" stroke-width="3" stroke-linecap="round" stroke-linejoin="round"/>
</svg>
