<svg width="25" height="25" viewBox="0 0 25 25" fill="none" xmlns="http://www.w3.org/2000/svg">
<rect width="25" height="25" rx="5" fill="white" fill-opacity="0.2"/>
<path d="M9.46963 11.7424V15.5303M9.46963 9.4697V9.47727M12.4999 15.5303V11.7424M15.5302 15.5303V13.2576C15.5302 12.8557 15.3706 12.4703 15.0865 12.1862C14.8023 11.9021 14.4169 11.7424 14.0151 11.7424C13.6132 11.7424 13.2279 11.9021 12.9437 12.1862C12.6596 12.4703 12.4999 12.8557 12.4999 13.2576M6.43933 7.95454C6.43933 7.5527 6.59896 7.16732 6.88311 6.88317C7.16725 6.59902 7.55264 6.43939 7.95448 6.43939H17.0454C17.4472 6.43939 17.8326 6.59902 18.1168 6.88317C18.4009 7.16732 18.5605 7.5527 18.5605 7.95454V17.0455C18.5605 17.4473 18.4009 17.8327 18.1168 18.1168C17.8326 18.401 17.4472 18.5606 17.0454 18.5606H7.95448C7.55264 18.5606 7.16725 18.401 6.88311 18.1168C6.59896 17.8327 6.43933 17.4473 6.43933 17.0455V7.95454Z" stroke="white" stroke-linecap="round" stroke-linejoin="round"/>
</svg>
