<svg width="42" height="42" viewBox="0 0 42 42" fill="none" xmlns="http://www.w3.org/2000/svg">
<path d="M15.75 19.25C15.75 20.6424 16.3031 21.9777 17.2877 22.9623C18.2723 23.9469 19.6076 24.5 21 24.5C22.3924 24.5 23.7277 23.9469 24.7123 22.9623C25.6969 21.9777 26.25 20.6424 26.25 19.25C26.25 17.8576 25.6969 16.5223 24.7123 15.5377C23.7277 14.5531 22.3924 14 21 14C19.6076 14 18.2723 14.5531 17.2877 15.5377C16.3031 16.5223 15.75 17.8576 15.75 19.25Z" stroke="#354052" stroke-width="3" stroke-linecap="round" stroke-linejoin="round"/>
<path d="M30.8998 29.1497L23.4745 36.575C22.8182 37.2306 21.9285 37.5989 21.0009 37.5989C20.0732 37.5989 19.1835 37.2306 18.5273 36.575L11.1003 29.1497C9.14239 27.1918 7.80909 24.6972 7.26896 21.9815C6.72882 19.2658 7.00611 16.4509 8.06576 13.8928C9.12541 11.3346 10.9198 9.14819 13.2221 7.60988C15.5244 6.07157 18.2311 5.2505 21 5.2505C23.7689 5.2505 26.4756 6.07157 28.7779 7.60988C31.0802 9.14819 32.8746 11.3346 33.9343 13.8928C34.9939 16.4509 35.2712 19.2658 34.7311 21.9815C34.1909 24.6972 32.8576 27.1918 30.8998 29.1497Z" stroke="#354052" stroke-width="3" stroke-linecap="round" stroke-linejoin="round"/>
</svg>
