<svg width="25" height="25" viewBox="0 0 25 25" fill="none" xmlns="http://www.w3.org/2000/svg">
<rect width="25" height="25" rx="5" fill="white" fill-opacity="0.2"/>
<path d="M20.0757 6.44701C19.3181 6.81822 18.5757 6.96898 17.803 7.19701C16.9537 6.23867 15.6946 6.18564 14.4848 6.63867C13.275 7.0917 12.4825 8.19928 12.5 9.46973V10.2273C10.0416 10.2902 7.85222 9.17049 6.43935 7.19701C6.43935 7.19701 3.27116 12.8281 9.46965 15.5303C8.05147 16.475 6.63707 17.1122 4.92419 17.0455C7.43025 18.4114 10.1613 18.8811 12.5257 18.1947C15.2378 17.4069 17.4666 15.3743 18.3219 12.3296C18.5771 11.4036 18.7038 10.4469 18.6984 9.4864C18.6984 9.29777 19.8424 7.3864 20.0757 6.44625V6.44701Z" stroke="white" stroke-linecap="round" stroke-linejoin="round"/>
</svg>
