<svg width="51" height="51" viewBox="0 0 51 51" fill="none" xmlns="http://www.w3.org/2000/svg">
<path d="M34 12.75H40.375C40.9386 12.75 41.4791 12.9739 41.8776 13.3724C42.2761 13.7709 42.5 14.3114 42.5 14.875V38.25C42.5 39.3772 42.0522 40.4582 41.2552 41.2552C40.4582 42.0522 39.3772 42.5 38.25 42.5M38.25 42.5C37.1228 42.5 36.0418 42.0522 35.2448 41.2552C34.4478 40.4582 34 39.3772 34 38.25V10.625C34 10.0614 33.7761 9.52091 33.3776 9.1224C32.9791 8.72388 32.4386 8.5 31.875 8.5H10.625C10.0614 8.5 9.52091 8.72388 9.1224 9.1224C8.72388 9.52091 8.5 10.0614 8.5 10.625V36.125C8.5 37.8158 9.17165 39.4373 10.3672 40.6328C11.5627 41.8284 13.1842 42.5 14.875 42.5H38.25ZM17 17H25.5M17 25.5H25.5M17 34H25.5" stroke="white" stroke-width="3" stroke-linecap="round" stroke-linejoin="round"/>
</svg>
