<svg width="25" height="25" viewBox="0 0 25 25" fill="none" xmlns="http://www.w3.org/2000/svg">
<rect width="25" height="25" rx="5" fill="white" fill-opacity="0.2"/>
<path d="M15.909 9.09091V9.09848M6.43933 9.4697C6.43933 8.66601 6.75859 7.89524 7.32689 7.32695C7.89518 6.75866 8.66595 6.43939 9.46963 6.43939H15.5302C16.3339 6.43939 17.1047 6.75866 17.673 7.32695C18.2413 7.89524 18.5605 8.66601 18.5605 9.4697V15.5303C18.5605 16.334 18.2413 17.1048 17.673 17.673C17.1047 18.2413 16.3339 18.5606 15.5302 18.5606H9.46963C8.66595 18.5606 7.89518 18.2413 7.32689 17.673C6.75859 17.1048 6.43933 16.334 6.43933 15.5303V9.4697ZM10.2272 12.5C10.2272 13.1028 10.4667 13.6808 10.8929 14.1071C11.3191 14.5333 11.8972 14.7727 12.4999 14.7727C13.1027 14.7727 13.6808 14.5333 14.107 14.1071C14.5332 13.6808 14.7727 13.1028 14.7727 12.5C14.7727 11.8972 14.5332 11.3192 14.107 10.8929C13.6808 10.4667 13.1027 10.2273 12.4999 10.2273C11.8972 10.2273 11.3191 10.4667 10.8929 10.8929C10.4667 11.3192 10.2272 11.8972 10.2272 12.5Z" stroke="white" stroke-linecap="round" stroke-linejoin="round"/>
</svg>
