<svg width="42" height="42" viewBox="0 0 42 42" fill="none" xmlns="http://www.w3.org/2000/svg">
<path d="M5.25 12.25C5.25 11.3217 5.61875 10.4315 6.27513 9.77513C6.9315 9.11875 7.82174 8.75 8.75 8.75H33.25C34.1783 8.75 35.0685 9.11875 35.7249 9.77513C36.3813 10.4315 36.75 11.3217 36.75 12.25M5.25 12.25V29.75C5.25 30.6783 5.61875 31.5685 6.27513 32.2249C6.9315 32.8813 7.82174 33.25 8.75 33.25H33.25C34.1783 33.25 35.0685 32.8813 35.7249 32.2249C36.3813 31.5685 36.75 30.6783 36.75 29.75V12.25M5.25 12.25L21 22.75L36.75 12.25" stroke="#354052" stroke-width="3" stroke-linecap="round" stroke-linejoin="round"/>
</svg>
