<?xml version="1.0" encoding="UTF-8"?>
<svg version="1.1" xmlns="http://www.w3.org/2000/svg" width="665" height="636">
<path d="M0 0 C219.45 0 438.9 0 665 0 C665 209.88 665 419.76 665 636 C445.55 636 226.1 636 0 636 C0 426.12 0 216.24 0 0 Z " fill="#0A2462" transform="translate(0,0)"/>
<path d="M0 0 C2.00274308 0.01065031 4.00556396 -0.00092605 6.00830078 -0.01269531 C27.30708061 0.02927273 27.30708061 0.02927273 33.77001953 3.26074219 C33.77001953 3.92074219 33.77001953 4.58074219 33.77001953 5.26074219 C34.62724609 5.41929687 35.48447266 5.57785156 36.36767578 5.74121094 C42.44071551 6.98046707 47.41117291 8.02853098 52.23486328 12.01074219 C54.29794323 13.69060373 56.60874837 14.86483552 58.92626953 16.15527344 C62.38737234 18.23046855 65.7814027 20.54381779 68.77001953 23.26074219 C68.77001953 23.92074219 68.77001953 24.58074219 68.77001953 25.26074219 C70.09001953 25.92074219 71.41001953 26.58074219 72.77001953 27.26074219 C72.77001953 27.92074219 72.77001953 28.58074219 72.77001953 29.26074219 C73.36685547 29.37160156 73.96369141 29.48246094 74.57861328 29.59667969 C78.25945193 30.71208534 80.4283384 33.29549724 82.77001953 36.26074219 C83.82354796 38.57040067 84.82721049 40.90371958 85.77001953 43.26074219 C86.36041016 43.92074219 86.95080078 44.58074219 87.55908203 45.26074219 C90.82498796 49.69221879 92.55144946 54.58444859 94.52001953 59.69824219 C94.93123047 60.72240234 95.34244141 61.7465625 95.76611328 62.80175781 C96.15412109 63.79755859 96.54212891 64.79335938 96.94189453 65.81933594 C97.46928223 67.16983032 97.46928223 67.16983032 98.00732422 68.54760742 C98.85395184 71.55931444 98.9037587 74.14730568 98.77001953 77.26074219 C99.43001953 77.26074219 100.09001953 77.26074219 100.77001953 77.26074219 C101.57986147 82.21226714 101.88789293 86.91026494 101.86767578 91.94433594 C101.86555336 92.99488914 101.86555336 92.99488914 101.86338806 94.06666565 C101.8578443 96.27723685 101.8453028 98.48770222 101.83251953 100.69824219 C101.82749724 102.20800634 101.82293562 103.71777209 101.81884766 105.22753906 C101.8078934 108.90530712 101.79066843 112.5830143 101.77001953 116.26074219 C101.11001953 116.26074219 100.45001953 116.26074219 99.77001953 116.26074219 C99.69654297 117.18693359 99.69654297 117.18693359 99.62158203 118.13183594 C98.33619024 132.69222222 98.33619024 132.69222222 95.20751953 137.82324219 C93.72856641 140.33103226 93.55053727 141.49939343 93.33251953 144.32324219 C92.70409078 148.72224346 91.974274 149.4448822 88.77001953 152.26074219 C87.51565767 154.8929718 87.51565767 154.8929718 86.77001953 157.26074219 C86.11001953 157.26074219 85.45001953 157.26074219 84.77001953 157.26074219 C84.52251953 157.96199219 84.27501953 158.66324219 84.02001953 159.38574219 C82.59051312 162.67360693 80.95303904 165.41620162 78.77001953 168.26074219 C77.78001953 168.26074219 76.79001953 168.26074219 75.77001953 168.26074219 C75.52380859 168.84984375 75.27759766 169.43894531 75.02392578 170.04589844 C70.86561895 177.39094507 60.50010227 182.44922114 52.83251953 185.38574219 C50.42394665 186.18474155 50.42394665 186.18474155 48.77001953 189.26074219 C47.01757812 190.13623047 47.01757812 190.13623047 44.91845703 190.83105469 C43.76410156 191.21583984 43.76410156 191.21583984 42.58642578 191.60839844 C41.37792969 191.99318359 41.37792969 191.99318359 40.14501953 192.38574219 C38.97132813 192.78212891 38.97132813 192.78212891 37.77392578 193.18652344 C29.91440865 195.75422638 22.31531088 196.41655537 14.09814453 196.42871094 C13.29447449 196.43203934 12.49080444 196.43536774 11.66278076 196.438797 C9.97197028 196.44382832 8.28114999 196.44620651 6.59033203 196.44604492 C4.04068121 196.44822452 1.4914687 196.46640202 -1.05810547 196.48535156 C-11.86735176 196.52345686 -22.05837628 196.32938386 -32.22998047 192.26074219 C-32.22998047 130.88074219 -32.22998047 69.50074219 -32.22998047 6.26074219 C-20.78532323 1.17422786 -12.29731531 -0.07747279 0 0 Z " fill="#0B2564" transform="translate(505.22998046875,217.7392578125)"/>
<path d="M0 0 C18.37633254 -0.02338193 36.75266122 -0.04100518 55.12900543 -0.05181217 C63.66185504 -0.05696388 72.19469539 -0.06398513 80.72753906 -0.07543945 C88.16656358 -0.08542068 95.60558138 -0.09186161 103.04461241 -0.09408849 C106.98186288 -0.09538976 110.91909418 -0.09843861 114.8563385 -0.10573006 C118.5662773 -0.11254454 122.27618911 -0.11460595 125.98613358 -0.11310768 C127.98847041 -0.11351164 129.99080434 -0.11887845 131.99313354 -0.12442017 C138.09249074 -0.11746668 143.97147944 0.05020046 150 1 C150 1.66 150 2.32 150 3 C151.19625 3.0825 152.3925 3.165 153.625 3.25 C162.09829154 4.19147684 170.8187581 6.31871262 178 11 C181.45347706 13.04650493 184.65681997 14.86018591 188.375 16.375 C196.65049892 20.08470641 202.30158149 25.02250091 208.15234375 31.92578125 C209.83379524 34.07123704 209.83379524 34.07123704 212 35 C212 35.66 212 36.32 212 37 C212.99 37.33 213.98 37.66 215 38 C216.03013277 39.64821244 217.03114628 41.31503702 218 43 C218.66 43.33 219.32 43.66 220 44 C220.433125 45.2065625 220.433125 45.2065625 220.875 46.4375 C221.72315809 49.13783207 221.72315809 49.13783207 223.984375 49.91796875 C226 51 226 51 226.8359375 52.7421875 C227.01382813 53.44601562 227.19171875 54.14984375 227.375 54.875 C228.54154446 58.92206206 230.18307108 62.35876601 232.1875 66.0625 C234.80101749 71.10239422 235.64807356 74.38336247 235 80 C235.66 80 236.32 80 237 80 C240.88611644 90.16166191 241.53433375 98.8960903 241.3125 109.625 C241.30097244 111.08201838 241.29119809 112.53905171 241.28320312 113.99609375 C241.18236624 124.45290128 241.18236624 124.45290128 240 128 C239.34 128 238.68 128 238 128 C237.814375 129.9490625 237.814375 129.9490625 237.625 131.9375 C236.45266307 142.24764122 234.71664542 154.66461177 227 162 C225.92790654 163.86811158 225.92790654 163.86811158 225.25 165.75 C224.63125 167.35875 224.63125 167.35875 224 169 C223.34 169 222.68 169 222 169 C221.731875 169.7425 221.46375 170.485 221.1875 171.25 C220.04723249 173.89061949 218.90619694 175.85552844 217 178 C216.34 178 215.68 178 215 178 C215 178.66 215 179.32 215 180 C214.34 180 213.68 180 213 180 C212.75378906 180.58523438 212.50757813 181.17046875 212.25390625 181.7734375 C210.80626232 184.34402017 209.20757518 185.75455693 206.9375 187.625 C204.02124288 189.95485552 204.02124288 189.95485552 202 193 C198.78800621 195.17281933 195.46972806 196.64114139 191.89453125 198.11328125 C189.05232469 199.44355113 186.48976936 201.1665267 183.85546875 202.86328125 C180.73219193 204.77669926 177.45595043 205.84801652 174 207 C174 207.66 174 208.32 174 209 C163.42200737 213.61905678 154.31517796 216.06772372 142.87890625 217.53515625 C140.11098807 217.69389452 140.11098807 217.69389452 139 219 C130.73945701 220.13781711 122.39287302 220.13988405 114.07128906 220.11352539 C112.22523575 220.11374443 112.22523575 220.11374443 110.34188843 220.1139679 C107.00796955 220.11339574 103.67411467 220.10842399 100.3402071 220.10139394 C96.84088141 220.09508935 93.34155462 220.09455103 89.84222412 220.09336853 C83.23399621 220.09027598 76.62578509 220.08209092 70.01756454 220.07201904 C62.48659754 220.060793 54.95562969 220.05533118 47.42465639 220.05032361 C31.94976125 220.03990629 16.4748828 220.02234755 1 220 C1 218.02 1 216.04 1 214 C2.31355469 213.87882813 3.62710937 213.75765625 4.98046875 213.6328125 C6.71618387 213.46393211 8.45185892 213.29463961 10.1875 213.125 C11.05181641 213.04636719 11.91613281 212.96773437 12.80664062 212.88671875 C17.19046771 212.45001567 20.99095497 211.97547146 25 210 C25 209.34 25 208.68 25 208 C25.598125 207.443125 26.19625 206.88625 26.8125 206.3125 C31.51261858 201.34380322 32.37484519 196.16812926 32.39872742 189.51454163 C32.40537424 188.79393899 32.41202107 188.07333635 32.41886932 187.33089727 C32.43741233 184.93407462 32.4349 182.53775499 32.43237305 180.14086914 C32.44139554 178.4157135 32.45172396 176.69056427 32.46325684 174.96542358 C32.49079568 170.29448244 32.50010713 165.62366306 32.50611091 160.95265126 C32.51550266 156.06656539 32.54170673 151.18057017 32.56611633 146.29454041 C32.60976292 137.04768247 32.63832121 127.80084214 32.66143972 118.55391258 C32.68850123 108.02427321 32.73241218 97.49472512 32.77772844 86.96515095 C32.87054837 65.31014975 32.94224128 43.65512124 33 22 C32.34 22 31.68 22 31 22 C30.66226562 21.28972656 30.32453125 20.57945312 29.9765625 19.84765625 C29.53054688 18.92855469 29.08453125 18.00945312 28.625 17.0625 C28.18414062 16.14597656 27.74328125 15.22945312 27.2890625 14.28515625 C26.20800838 11.87096198 26.20800838 11.87096198 24 11 C24 10.34 24 9.68 24 9 C16.01350895 7.81468505 8.04456097 6.70436248 0 6 C0 4.02 0 2.04 0 0 Z M67 18 C67 79.38 67 140.76 67 204 C77.88251542 208.35300617 88.98455913 208.3191471 100.53637695 208.26074219 C103.06160403 208.25000381 105.58612229 208.26070249 108.11132812 208.2734375 C119.64237173 208.2847068 130.063236 207.21375516 141.0625 203.5625 C141.71154297 203.35818359 142.36058594 203.15386719 143.02929688 202.94335938 C146.6137903 201.74852823 147.83665248 201.24502128 150 198 C151.77734375 197.078125 151.77734375 197.078125 153.9375 196.25 C161.69608393 192.97861001 169.56901276 188.55463977 175 182 C175 181.34 175 180.68 175 180 C175.99 180 176.98 180 178 180 C179.69866502 178.0767867 179.69866502 178.0767867 181.1875 175.625 C181.98220703 174.40683594 181.98220703 174.40683594 182.79296875 173.1640625 C184.16237152 171.12187409 184.16237152 171.12187409 184 169 C184.66 169 185.32 169 186 169 C186.433125 168.071875 186.86625 167.14375 187.3125 166.1875 C189 163 189 163 190.625 161.625 C192.56769848 159.32908362 192.45646368 157.05014688 192.59375 154.1328125 C193 152 193 152 194.42578125 149.64453125 C196.21974679 146.6308472 196.92684733 143.9794001 197.6875 140.5625 C198.06455078 138.92474609 198.06455078 138.92474609 198.44921875 137.25390625 C198.98350208 134.09746645 199.10116069 131.19378747 199 128 C199.66 128 200.32 128 201 128 C201.02486762 123.57088594 201.04293889 119.14180975 201.05493164 114.71264648 C201.05993555 113.2084075 201.06674073 111.70417332 201.07543945 110.19995117 C201.08767884 108.02781991 201.09326786 105.85575341 201.09765625 103.68359375 C201.10289307 102.37962646 201.10812988 101.07565918 201.11352539 99.73217773 C201.00145975 96.04798967 200.59374786 92.63028534 200 89 C199.34 89 198.68 89 198 89 C197.91105469 87.72253906 197.82210937 86.44507813 197.73046875 85.12890625 C197.11966897 79.68074272 195.38573589 74.98353222 193.3125 69.9375 C192.98572266 69.09123047 192.65894531 68.24496094 192.32226562 67.37304688 C190.23850471 62.20547919 187.77735559 57.98201224 184.25854492 53.65698242 C183 52 183 52 182 49.375 C180.53066903 45.88533894 178.03923817 43.25042826 175 41 C174.01 41 173.02 41 172 41 C171.01 39.02 171.01 39.02 170 37 C169.34 37 168.68 37 168 37 C167.65001953 36.11828125 167.65001953 36.11828125 167.29296875 35.21875 C165.68753445 32.46380534 163.9497574 31.27701877 161.3125 29.5 C160.42046875 28.89800781 159.5284375 28.29601562 158.609375 27.67578125 C155.46393824 25.6557328 152.27371415 23.80388331 149 22 C148.01 21.34 147.02 20.68 146 20 C143.78610171 19.39896659 141.55397421 18.86324191 139.3125 18.375 C138.13300781 18.11460937 136.95351563 17.85421875 135.73828125 17.5859375 C134.83464844 17.39257812 133.93101562 17.19921875 133 17 C133 16.34 133 15.68 133 15 C131.2675 14.5359375 131.2675 14.5359375 129.5 14.0625 C128.8503125 13.88847656 128.200625 13.71445313 127.53125 13.53515625 C119.67157102 11.87346486 111.87777494 11.7827084 103.8659668 11.75976562 C101.83404916 11.75010248 99.80316411 11.719018 97.77148438 11.6875 C86.58851923 11.59568165 77.05799799 12.97100101 67 18 Z " fill="#F9FAFB" transform="translate(406,206)"/>
<path d="M0 0 C1.05380859 0.00161133 2.10761719 0.00322266 3.19335938 0.00488281 C14.15423079 0.17604155 23.78938377 2.12168271 33.49609375 7.42578125 C40.22646568 10.82594836 47.87022694 12.58456049 55.375 11.375 C58.86517434 9.19364104 59.31541767 7.55374699 60.625 3.625 C60.99625 2.01625 60.99625 2.01625 61.375 0.375 C64.015 0.375 66.655 0.375 69.375 0.375 C69.39812484 9.87574325 69.4159158 19.37647688 69.42681217 28.87724209 C69.43204069 33.28837004 69.43913777 37.6994788 69.45043945 42.1105957 C69.46126944 46.36401115 69.46727707 50.61740809 69.46987724 54.87083626 C69.47173129 56.49721633 69.47535152 58.12359534 69.48073006 59.74996758 C69.48794198 62.02010193 69.48899088 64.29015885 69.48852539 66.56030273 C69.490746 67.85491928 69.49296661 69.14953583 69.49525452 70.48338318 C69.375 73.375 69.375 73.375 68.375 74.375 C66.37541636 74.41580783 64.37454746 74.41754356 62.375 74.375 C60.96499581 71.55499162 60.99891619 68.78142297 60.75390625 65.6640625 C60.34816955 63.21291088 59.4953411 61.57748875 58.375 59.375 C57.96989988 57.69899756 57.61711569 56.00964453 57.3125 54.3125 C56.48062903 48.88830732 56.48062903 48.88830732 53.4375 44.5 C51.375 42.375 51.375 42.375 50.515625 40.09765625 C49.14000413 36.81406808 47.30418423 34.44910427 45.0625 31.6875 C44.30324219 30.73488281 43.54398437 29.78226563 42.76171875 28.80078125 C40.31718047 26.31623416 38.58431969 25.54806168 35.375 24.375 C35.065625 23.529375 34.75625 22.68375 34.4375 21.8125 C34.086875 21.008125 33.73625 20.20375 33.375 19.375 C30.56022204 18.68303455 30.56022204 18.68303455 27.375 18.375 C25.375 17.375 23.375 16.375 21.375 15.375 C15.71806286 13.70692879 10.63226936 13.03605095 4.75 13.0625 C3.66332031 13.03833008 3.66332031 13.03833008 2.5546875 13.01367188 C-2.30094687 13.00927366 -5.31573673 13.96617025 -9.625 16.375 C-11.24049553 16.80799332 -12.86587502 17.20620718 -14.5 17.5625 C-21.5610881 19.58603958 -25.72339924 24.36924396 -29.5625 30.4375 C-32.95951195 39.82923891 -32.8804457 50.10661029 -28.7421875 59.16796875 C-25.04096502 66.47982434 -20.13631979 70.56353803 -13.625 75.375 C-12.85414063 75.94863281 -12.08328125 76.52226562 -11.2890625 77.11328125 C-6.84738528 80.25362497 -2.81650921 82.07235023 2.3828125 83.6015625 C5.43102973 84.78498801 7.18017419 87.00689846 9.375 89.375 C10.60127559 90.14339586 11.85300017 90.87242722 13.125 91.5625 C16.375 93.375 16.375 93.375 17.375 95.375 C19.09068102 96.17352014 19.09068102 96.17352014 21.125 96.8125 C25.95042814 98.53339642 29.46288067 100.00682101 32.375 104.375 C34.34252828 105.43746527 36.34087579 106.44637808 38.375 107.375 C38.375 108.035 38.375 108.695 38.375 109.375 C38.94863281 109.47296875 39.52226562 109.5709375 40.11328125 109.671875 C42.83943833 110.51938497 44.37826033 111.79485383 46.5625 113.625 C49.61954247 116.09879095 52.55651798 118.09831992 56.0625 119.875 C61.41812463 122.70757204 65.43846436 126.56539308 67.375 132.375 C68.1175 133.07625 68.86 133.7775 69.625 134.5 C75.32463378 140.45870805 78.02651329 147.59648622 80.375 155.375 C80.72304688 156.29023438 81.07109375 157.20546875 81.4296875 158.1484375 C84.91136283 170.03217231 82.20795333 182.32047013 77.375 193.375 C75.5832046 196.54407098 73.74000797 199.5986863 71.375 202.375 C70.715 202.375 70.055 202.375 69.375 202.375 C69.1275 203.096875 68.88 203.81875 68.625 204.5625 C65.99093294 210.48915089 62.12716002 213.46213147 56.7734375 216.83203125 C54.39080855 218.31430843 54.39080855 218.31430843 52.3515625 219.94921875 C46.27536126 224.57039096 39.98307207 226.02175266 32.65625 227.61328125 C29.54238505 228.03131732 29.54238505 228.03131732 28.375 229.375 C24.40273492 229.63148375 20.4170405 229.56024785 16.4375 229.5625 C15.33341797 229.57474609 14.22933594 229.58699219 13.09179688 229.59960938 C7.00446185 229.61039615 1.40525199 229.19297625 -4.53198242 227.84057617 C-6.95839882 227.30083792 -9.33304336 227.07832972 -11.8125 226.9375 C-15.4750896 226.61482982 -18.18365709 225.81360808 -21.5234375 224.20703125 C-29.12204455 221.1986608 -38.4993471 219.19546974 -46.625 220.375 C-49.12040371 223.24115486 -49.12040371 223.24115486 -50.625 226.375 C-51.285 226.375 -51.945 226.375 -52.625 226.375 C-53.285 228.025 -53.945 229.675 -54.625 231.375 C-56.935 231.375 -59.245 231.375 -61.625 231.375 C-61.625 206.625 -61.625 181.875 -61.625 156.375 C-59.315 156.375 -57.005 156.375 -54.625 156.375 C-54.48513672 156.90754395 -54.34527344 157.44008789 -54.20117188 157.98876953 C-51.35091957 168.6359741 -48.23213309 178.16052222 -42.359375 187.52734375 C-40.625 190.375 -40.625 190.375 -39.61328125 193.0234375 C-38.48812064 195.70069713 -37.17890933 197.09631596 -35.0625 199.0625 C-31.70914873 202.20670254 -31.70914873 202.20670254 -30.625 204.375 C-28.08108928 205.50562699 -25.52759264 206.40599325 -22.875 207.25 C-21.76125 207.806875 -21.76125 207.806875 -20.625 208.375 C-19.984375 210.4453125 -19.984375 210.4453125 -19.625 212.375 C-6.61855784 216.08373351 5.87551402 217.15650685 19.375 217.375 C19.375 216.715 19.375 216.055 19.375 215.375 C20.5815625 215.13007813 21.788125 214.88515625 23.03125 214.6328125 C34.07055694 212.30463634 34.07055694 212.30463634 42.375 205.0625 C42.931875 204.17949219 43.48875 203.29648437 44.0625 202.38671875 C44.495625 201.72285156 44.92875 201.05898438 45.375 200.375 C46.035 200.375 46.695 200.375 47.375 200.375 C47.705 197.075 48.035 193.775 48.375 190.375 C49.035 190.375 49.695 190.375 50.375 190.375 C49.96634146 173.72216463 46.3731046 164.20012701 34.1171875 152.15625 C30.16399772 148.58037276 30.16399772 148.58037276 25.375 146.375 C25.375 145.715 25.375 145.055 25.375 144.375 C24.4675 144.313125 23.56 144.25125 22.625 144.1875 C18.49513152 143.15503288 17.95658281 141.6941779 15.375 138.375 C11.28473966 135.27884746 7.00069628 132.59323163 2.375 130.375 C2.375 129.715 2.375 129.055 2.375 128.375 C1.694375 128.1275 1.01375 127.88 0.3125 127.625 C-2.55513508 126.40472975 -5.1198786 124.98186575 -7.78125 123.375 C-9.6493152 122.30254659 -9.6493152 122.30254659 -11.890625 121.5546875 C-15.54899225 119.97636334 -18.61505845 117.77104456 -21.875 115.5 C-26.74289251 112.15811308 -31.36898273 109.23708599 -36.98828125 107.2890625 C-38.625 106.375 -38.625 106.375 -39.60546875 104.3984375 C-40.43205275 102.24004169 -40.43205275 102.24004169 -42.421875 101.53125 C-45.76942737 99.77437854 -47.65853082 96.84532644 -49.875 93.875 C-50.33390625 93.28074219 -50.7928125 92.68648438 -51.265625 92.07421875 C-54.625 87.64504278 -54.625 87.64504278 -54.625 85.375 C-55.285 85.375 -55.945 85.375 -56.625 85.375 C-63.89572833 68.78644507 -65.04547083 52.46139957 -58.625 35.375 C-55.10631792 26.79600591 -50.80933396 19.99180377 -42.625 15.375 C-41.861875 14.59125 -41.09875 13.8075 -40.3125 13 C-34.64279562 7.46214921 -28.23943343 4.38001824 -20.625 2.375 C-20.00431641 2.20581055 -19.38363281 2.03662109 -18.74414062 1.86230469 C-12.48068882 0.29222865 -6.44096927 -0.01027596 0 0 Z " fill="#F7F8FA" transform="translate(299.625,200.625)"/>
<path d="M0 0 C64.35 0 128.7 0 195 0 C196.15033784 27.60810811 196.15033784 27.60810811 196.0625 38.5 C196.05798828 39.63179687 196.05347656 40.76359375 196.04882812 41.9296875 C196.03742909 44.61985891 196.0212825 47.30989212 196 50 C194.02 50 192.04 50 190 50 C189.85304687 49.02160156 189.70609375 48.04320312 189.5546875 47.03515625 C188.19291578 38.79085974 186.51966517 32.53231692 181 26 C180.319375 25.0925 179.63875 24.185 178.9375 23.25 C172.28683237 18.1558716 162.92427304 14.963994 154.50683594 14.79467773 C153.18591949 14.7647599 153.18591949 14.7647599 151.83831787 14.73423767 C150.42561615 14.70916893 150.42561615 14.70916893 148.984375 14.68359375 C148.01340881 14.66281265 147.04244263 14.64203156 146.04205322 14.62062073 C142.94477315 14.55531138 139.84740932 14.49632677 136.75 14.4375 C134.64842889 14.39429708 132.5468662 14.35068222 130.4453125 14.30664062 C125.29696052 14.19964902 120.14852442 14.0983291 115 14 C115.03718794 37.70489346 115.09708015 61.40963585 115.18390274 85.11440182 C115.22368952 96.12127358 115.25608389 107.12807388 115.27099609 118.13500977 C115.28401444 127.73014604 115.31098389 137.32512505 115.35461307 146.92017275 C115.37722363 151.99935342 115.39291091 157.07834015 115.39188385 162.15757561 C115.39113701 166.94208583 115.4090977 171.72616741 115.44116783 176.51056671 C115.44965959 178.26284136 115.45142169 180.01516412 115.44580269 181.76745033 C115.41648392 192.31914075 115.42270401 201.43319933 123.09765625 209.4765625 C127.47956932 212.86742607 132.05248045 213.10361673 137.4375 213.375 C138.35982422 213.44332031 139.28214844 213.51164063 140.23242188 213.58203125 C142.48779329 213.74563332 144.74175137 213.88429073 147 214 C147 215.98 147 217.96 147 220 C114.33 220 81.66 220 48 220 C48 218.02 48 216.04 48 214 C52.28297531 212.94380997 56.42985646 212.88297908 60.8125 212.9375 C61.50537109 212.94201172 62.19824219 212.94652344 62.91210938 212.95117188 C64.60811068 212.96286844 66.30406703 212.98080076 68 213 C68 212.34 68 211.68 68 211 C68.92619141 210.86464844 68.92619141 210.86464844 69.87109375 210.7265625 C72.09199646 210.19716188 72.09199646 210.19716188 73.16015625 208.3984375 C73.45792969 207.73070312 73.75570312 207.06296875 74.0625 206.375 C74.36285156 205.72273437 74.66320312 205.07046875 74.97265625 204.3984375 C75.31167969 203.60695313 75.65070313 202.81546875 76 202 C76.50796521 200.95383483 77.01593042 199.90766966 77.53928852 198.82980251 C79.16377906 195.01710285 79.42802219 191.43396905 79.39872742 187.32472229 C79.40537424 186.58370189 79.41202107 185.84268149 79.41886932 185.07920593 C79.4374194 182.61328983 79.4348995 180.14786236 79.43237305 177.68188477 C79.44139511 175.90746886 79.45172342 174.13305919 79.46325684 172.35865784 C79.49080081 167.55342394 79.50010784 162.7483084 79.50611091 157.9430058 C79.51550132 152.91678519 79.54170528 147.89065275 79.56611633 142.86448669 C79.60976661 133.3520085 79.63832264 123.83954744 79.66143972 114.3269996 C79.68849925 103.49506997 79.73241032 92.66322908 79.77772844 81.83136284 C79.87055365 59.55428966 79.94224415 37.2771899 80 15 C73.47081522 15.04184523 66.94247073 15.11434227 60.41381836 15.20751953 C58.19579667 15.23563462 55.97767654 15.25689591 53.75952148 15.27099609 C50.55922394 15.2925566 47.36009813 15.33927507 44.16015625 15.390625 C43.17854019 15.39185364 42.19692413 15.39308228 41.18556213 15.39434814 C34.56552889 15.53317468 29.85706684 17.00273883 24 20 C22.205625 20.680625 22.205625 20.680625 20.375 21.375 C15.44388083 23.74924257 11.16365313 26.23219935 8.96679688 31.45751953 C8.20309773 34.25123524 7.60039038 37.02938638 7.0625 39.875 C6.85560547 40.84953125 6.64871094 41.8240625 6.43554688 42.828125 C5.93246683 45.21483033 5.45492647 47.60373467 5 50 C3.02 50 1.04 50 -1 50 C-1.02544144 46.0937604 -1.04319394 42.18755524 -1.05493164 38.28125 C-1.06220897 36.32810766 -1.0749363 34.37498794 -1.08789062 32.421875 C-1.11507714 21.54726761 -0.54543263 10.90865252 0 0 Z " fill="#F8F8FA" transform="translate(15,206)"/>
<path d="M0 0 C6.19302201 -0.04944073 12.38592909 -0.08573905 18.57910156 -0.10986328 C20.68589275 -0.11992034 22.79266999 -0.13356768 24.89941406 -0.15087891 C27.92776941 -0.17514 30.95594019 -0.18648608 33.984375 -0.1953125 C34.92617615 -0.20563507 35.86797729 -0.21595764 36.83831787 -0.22659302 C37.71892883 -0.22674408 38.59953979 -0.22689514 39.50683594 -0.22705078 C40.27960876 -0.231492 41.05238159 -0.23593323 41.84857178 -0.24050903 C44 0 44 0 48 2 C32.82 2 17.64 2 2 2 C2.33 63.71 2.66 125.42 3 189 C-0.0089338 184.4865993 -0.14196525 180.93390026 -0.12025452 175.69184875 C-0.12110894 174.9419954 -0.12196337 174.19214204 -0.12284368 173.41956586 C-0.12449449 170.89988505 -0.11898362 168.38027041 -0.11352539 165.8605957 C-0.11324341 164.05722047 -0.11340147 162.25384513 -0.1139679 160.45046997 C-0.11425543 155.5479014 -0.10836572 150.64535718 -0.10139394 145.74279428 C-0.09515317 140.62184029 -0.09455603 135.50088579 -0.09336853 130.37992859 C-0.09025736 120.67958966 -0.08204683 110.97926196 -0.07201904 101.27892798 C-0.06085128 90.23674838 -0.05534578 79.19456824 -0.05032361 68.1523844 C-0.03986406 45.4349167 -0.02226873 22.71745898 0 0 Z " fill="#32477C" transform="translate(130,220)"/>
<path d="M0 0 C18.37633254 -0.02338193 36.75266122 -0.04100518 55.12900543 -0.05181217 C63.66185504 -0.05696388 72.19469539 -0.06398513 80.72753906 -0.07543945 C88.16656358 -0.08542068 95.60558138 -0.09186161 103.04461241 -0.09408849 C106.98186288 -0.09538976 110.91909418 -0.09843861 114.8563385 -0.10573006 C118.5662773 -0.11254454 122.27618911 -0.11460595 125.98613358 -0.11310768 C127.98847041 -0.11351164 129.99080434 -0.11887845 131.99313354 -0.12442017 C138.09249074 -0.11746668 143.97147944 0.05020046 150 1 C150 1.66 150 2.32 150 3 C152.97 3.33 155.94 3.66 159 4 C154.81855902 5.04536024 151.85542862 4.68845234 147.70556641 4.08837891 C134.50165658 2.42407179 121.19994143 2.64438745 107.91448164 2.59528303 C104.17891588 2.57943999 100.44342656 2.55271984 96.70791626 2.5272522 C89.66430907 2.48083316 82.62068689 2.44391313 75.57700694 2.41057932 C67.5452556 2.37209401 59.51358174 2.32275497 51.48189616 2.27259517 C34.98798677 2.16982518 18.494034 2.0803898 2 2 C2 2.66 2 3.32 2 4 C3.2375 3.938125 4.475 3.87625 5.75 3.8125 C9.95060434 3.60246978 10.20242053 4.1518154 14 7 C7.07 6.505 7.07 6.505 0 6 C0 4.02 0 2.04 0 0 Z " fill="#CDD2DF" transform="translate(406,206)"/>
<path d="M0 0 C64.35 0 128.7 0 195 0 C195 7.92 195 15.84 195 24 C194.67 24 194.34 24 194 24 C194 16.41 194 8.82 194 1 C130.31 1 66.62 1 1 1 C1 9.91 1 18.82 1 28 C0.71239376 35.01040202 0.42017242 41.99962733 0 49 C1.32 49 2.64 49 4 49 C3.9690625 47.205625 3.9690625 47.205625 3.9375 45.375 C3.93117429 41.81995131 4.30111125 38.49444376 5 35 C5.66 35 6.32 35 7 35 C7.33 34.34 7.66 33.68 8 33 C7.36934845 38.7809725 6.34844868 44.3443706 5 50 C3.02 50 1.04 50 -1 50 C-1.02544144 46.0937604 -1.04319394 42.18755524 -1.05493164 38.28125 C-1.06220897 36.32810766 -1.0749363 34.37498794 -1.08789062 32.421875 C-1.11507714 21.54726761 -0.54543263 10.90865252 0 0 Z " fill="#BCC3D4" transform="translate(15,206)"/>
<path d="M0 0 C2.31 0 4.62 0 7 0 C7.69640673 2.12209776 8.38188357 4.24778527 9.0625 6.375 C9.44535156 7.55835938 9.82820312 8.74171875 10.22265625 9.9609375 C11 13 11 13 10 15 C5.40774487 5.58997722 5.40774487 5.58997722 6 1 C4.68 1 3.36 1 2 1 C2 24.43 2 47.86 2 72 C3.65 72 5.3 72 7 72 C7 71.34 7 70.68 7 70 C7.66 70 8.32 70 9 70 C8.34 71.65 7.68 73.3 7 75 C4.69 75 2.38 75 0 75 C0 50.25 0 25.5 0 0 Z " fill="#97A2BC" transform="translate(238,357)"/>
<path d="M0 0 C0 0.66 0 1.32 0 2 C-5.52871655 6.06523276 -11.20871635 6.1305233 -17.875 6.0625 C-19.02742188 6.05347656 -20.17984375 6.04445313 -21.3671875 6.03515625 C-22.23601562 6.02355469 -23.10484375 6.01195312 -24 6 C-24 7.98 -24 9.96 -24 12 C19.23 11.67 62.46 11.34 107 11 C106.67 11.66 106.34 12.32 106 13 C62.77 13 19.54 13 -25 13 C-25 10.03 -25 7.06 -25 4 C-23.67484375 3.87882812 -22.3496875 3.75765625 -20.984375 3.6328125 C-19.23954301 3.46395779 -17.49475348 3.29466398 -15.75 3.125 C-14.87730469 3.04636719 -14.00460937 2.96773438 -13.10546875 2.88671875 C-11.83896484 2.76103516 -11.83896484 2.76103516 -10.546875 2.6328125 C-9.77182617 2.55949707 -8.99677734 2.48618164 -8.19824219 2.41064453 C-5.21629019 1.85359841 -3.01633838 0 0 0 Z " fill="#425787" transform="translate(431,414)"/>
<path d="M0 0 C-0.639375 0.309375 -1.27875 0.61875 -1.9375 0.9375 C-3.93610821 1.8345163 -3.93610821 1.8345163 -5 3 C-7.67058851 3.14115161 -10.32432238 3.04247107 -13 3 C-13 3.99 -13 4.98 -13 6 C18.68 6 50.36 6 83 6 C83 4.68 83 3.36 83 2 C82.12988281 2.01740234 82.12988281 2.01740234 81.2421875 2.03515625 C76.7001754 2.08762174 72.47286431 1.91751063 68 1 C68 0.67 68 0.34 68 0 C73.28 0.33 78.56 0.66 84 1 C84 2.98 84 4.96 84 7 C51.33 7 18.66 7 -15 7 C-15 5.02 -15 3.04 -15 1 C-10.03926578 -0.32286246 -5.08888488 -0.08893197 0 0 Z " fill="#BFC6D6" transform="translate(78,419)"/>
<path d="M0 0 C2.39763185 2.39763185 2.34280586 3.33273498 2.625 6.625 C2.69976563 7.44226563 2.77453125 8.25953125 2.8515625 9.1015625 C2.90054688 9.72804688 2.94953125 10.35453125 3 11 C3.66 11 4.32 11 5 11 C5.80984194 15.95152495 6.1178734 20.64952275 6.09765625 25.68359375 C6.0962413 26.38396255 6.09482635 27.08433136 6.09336853 27.80592346 C6.08782477 30.01649466 6.07528326 32.22696004 6.0625 34.4375 C6.05747771 35.94726415 6.05291609 37.45702991 6.04882812 38.96679688 C6.03787387 42.64456493 6.0206489 46.32227212 6 50 C5.34 50 4.68 50 4 50 C3.67 53.3 3.34 56.6 3 60 C2.67 60 2.34 60 2 60 C2.0721875 58.88367188 2.144375 57.76734375 2.21875 56.6171875 C3.92413005 31.60260765 3.92413005 31.60260765 0.65625 6.8984375 C0 4 0 4 0 0 Z " fill="#7886A9" transform="translate(601,284)"/>
<path d="M0 0 C-1.8384678 0.69376143 -3.6776322 1.38571285 -5.51953125 2.0703125 C-7.25085115 2.71921665 -8.97708454 3.38178412 -10.69921875 4.0546875 C-12.08560547 4.58449219 -12.08560547 4.58449219 -13.5 5.125 C-14.3559375 5.45757812 -15.211875 5.79015625 -16.09375 6.1328125 C-22.48716772 8.04052585 -29.05022044 8.1581734 -35.671875 8.16796875 C-36.47554504 8.17129715 -37.27921509 8.17462555 -38.10723877 8.17805481 C-39.79804925 8.18308613 -41.48886954 8.18546432 -43.1796875 8.18530273 C-45.72933832 8.18748234 -48.27855083 8.20565984 -50.828125 8.22460938 C-69.16396509 8.28922888 -69.16396509 8.28922888 -77 6 C-77.66 5.34 -78.32 4.68 -79 4 C-74.82695207 3.85096257 -71.704921 3.79033965 -67.6640625 4.9921875 C-61.83764387 6.51725054 -55.90595759 6.29798765 -49.92089844 6.26074219 C-47.90007741 6.25013167 -45.88016705 6.26062272 -43.859375 6.2734375 C-28.79831659 6.69620545 -28.79831659 6.69620545 -15 2 C-11.8125 1.875 -11.8125 1.875 -9 2 C-9 1.34 -9 0.68 -9 0 C-2.25 -1.125 -2.25 -1.125 0 0 Z " fill="#33497D" transform="translate(555,406)"/>
<path d="M0 0 C4.61199288 9.05878005 5.45289858 17.13024758 5.33618164 27.18603516 C5.31232349 29.39131503 5.31567147 31.59540273 5.32226562 33.80078125 C5.27960957 44.58058564 5.27960957 44.58058564 3 48 C2.98018066 47.13834229 2.96036133 46.27668457 2.93994141 45.38891602 C2.86122646 42.15138343 2.77451628 38.91418509 2.68261719 35.67700195 C2.64464703 34.28352927 2.6097423 32.88996919 2.578125 31.49633789 C2.40044117 23.75876217 1.89678321 16.52594629 0 9 C-0.2090858 5.951529 -0.09721473 3.06226402 0 0 Z " fill="#949FBA" transform="translate(642,286)"/>
<path d="M0 0 C-10.03378138 8.9105969 -29.58193025 6.33483457 -42 6 C-42 5.34 -42 4.68 -42 4 C-42.61488281 3.95101563 -43.22976563 3.90203125 -43.86328125 3.8515625 C-45.07564453 3.73941406 -45.07564453 3.73941406 -46.3125 3.625 C-47.11300781 3.55539062 -47.91351563 3.48578125 -48.73828125 3.4140625 C-51 3 -51 3 -54 1 C-47 2 -47 2 -44.0390625 2.5234375 C-38.53578565 3.30543196 -32.98450651 3.18426936 -27.4375 3.1875 C-26.32697266 3.19974609 -25.21644531 3.21199219 -24.07226562 3.22460938 C-18.64838312 3.23434705 -14.05922443 3.18777273 -9 1 C-2.26530612 -1.13265306 -2.26530612 -1.13265306 0 0 Z " fill="#707FA4" transform="translate(343,426)"/>
<path d="M0 0 C0.74749512 0.00088623 1.49499023 0.00177246 2.26513672 0.00268555 C9.30602136 0.15059067 15.44555001 1.81829965 22 4.375 C22.75410156 4.63667969 23.50820313 4.89835938 24.28515625 5.16796875 C28.36154805 6.68301375 28.94262166 7.26024332 31 11.375 C28.03 10.385 25.06 9.395 22 8.375 C22 7.715 22 7.055 22 6.375 C21.26394531 6.24222656 20.52789062 6.10945312 19.76953125 5.97265625 C18.30580078 5.70775391 18.30580078 5.70775391 16.8125 5.4375 C15.84957031 5.26347656 14.88664062 5.08945313 13.89453125 4.91015625 C12.12421091 4.58285006 10.35871872 4.22540257 8.60546875 3.81640625 C5.21233903 3.24155819 1.94006791 3.24311986 -1.5 3.25 C-2.7890625 3.24742187 -4.078125 3.24484375 -5.40625 3.2421875 C-8.42209033 3.35364247 -11.07792088 3.66695775 -14 4.375 C-13 2.375 -13 2.375 -10.9375 1.2734375 C-7.2693637 0.15153411 -3.80188776 -0.00810728 0 0 Z " fill="#66769D" transform="translate(304,212.625)"/>
<path d="M0 0 C2.00274308 0.01065031 4.00556396 -0.00092605 6.00830078 -0.01269531 C29.54295574 0.03367839 29.54295574 0.03367839 33.77001953 4.26074219 C32.48611328 4.11636719 31.20220703 3.97199219 29.87939453 3.82324219 C13.49670513 2.06527523 -2.62466475 0.78050554 -18.85205078 4.28100586 C-22.27806479 5.0127882 -24.89755664 5.54440545 -28.22998047 4.26074219 C-19.27171426 0.08021796 -9.71587527 -0.06120978 0 0 Z " fill="#7A88AA" transform="translate(505.22998046875,217.7392578125)"/>
<path d="M0 0 C0.33 0 0.66 0 1 0 C1 9.57 1 19.14 1 29 C2.32 29 3.64 29 5 29 C4.9690625 27.205625 4.9690625 27.205625 4.9375 25.375 C4.93117429 21.81995131 5.30111125 18.49444376 6 15 C6.66 15 7.32 15 8 15 C8.33 14.34 8.66 13.68 9 13 C8.36934845 18.7809725 7.34844868 24.3443706 6 30 C4.02 30 2.04 30 0 30 C0 20.1 0 10.2 0 0 Z " fill="#A6AFC6" transform="translate(14,226)"/>
<path d="M0 0 C0.66 0 1.32 0 2 0 C1.64660282 5.59342432 0.9638167 9.18379785 -2 14 C-2.19299595 15.34825342 -2.33513983 16.70435527 -2.4375 18.0625 C-3.06592875 22.46150127 -3.79574553 23.18414001 -7 26 C-8.25436187 28.63222962 -8.25436187 28.63222962 -9 31 C-9.66 31 -10.32 31 -11 31 C-9.125 25.25 -9.125 25.25 -8 23 C-7.34 23 -6.68 23 -6 23 C-5.83564453 22.02160156 -5.83564453 22.02160156 -5.66796875 21.0234375 C-4.72232363 15.81085709 -3.42101448 11.73676746 -1 7 C-0.2863276 3.26228166 -0.2863276 3.26228166 0 0 Z " fill="#495D8B" transform="translate(601,344)"/>
<path d="M0 0 C0 0.66 0 1.32 0 2 C-5.52871655 6.06523276 -11.20871635 6.1305233 -17.875 6.0625 C-19.02742188 6.05347656 -20.17984375 6.04445313 -21.3671875 6.03515625 C-22.23601562 6.02355469 -23.10484375 6.01195312 -24 6 C-24 7.98 -24 9.96 -24 12 C-24.33 12 -24.66 12 -25 12 C-25 9.36 -25 6.72 -25 4 C-24.44538086 3.9498877 -23.89076172 3.89977539 -23.31933594 3.84814453 C-20.79538036 3.61538326 -18.27276461 3.37031964 -15.75 3.125 C-14.87730469 3.04636719 -14.00460937 2.96773438 -13.10546875 2.88671875 C-11.83896484 2.76103516 -11.83896484 2.76103516 -10.546875 2.6328125 C-9.77182617 2.55949707 -8.99677734 2.48618164 -8.19824219 2.41064453 C-5.21629019 1.85359841 -3.01633838 0 0 0 Z " fill="#6A7AA0" transform="translate(431,414)"/>
<path d="M0 0 C-6.55285026 4.89292354 -12.60116492 4.50459656 -20.5625 4.3125 C-21.76841797 4.30283203 -22.97433594 4.29316406 -24.21679688 4.28320312 C-29.59883024 4.21485041 -34.69817534 3.98556699 -40 3 C-40 2.34 -40 1.68 -40 1 C-38.9171875 1.15339844 -37.834375 1.30679687 -36.71875 1.46484375 C-31.32662577 2.13885928 -25.92651344 2.34529703 -20.5 2.5625 C-18.98019531 2.62727539 -18.98019531 2.62727539 -17.4296875 2.69335938 C-14.9532321 2.79849192 -12.47669251 2.90063837 -10 3 C-10 2.34 -10 1.68 -10 1 C-8.71073008 0.63720544 -7.41846728 0.28503302 -6.125 -0.0625 C-5.40570313 -0.25972656 -4.68640625 -0.45695312 -3.9453125 -0.66015625 C-2 -1 -2 -1 0 0 Z " fill="#9CA7C0" transform="translate(329,415)"/>
<path d="M0 0 C0.66 0.33 1.32 0.66 2 1 C-1.59871557 7.21596325 -6.6301691 12.26631632 -12 17 C-12.66 17 -13.32 17 -14 17 C-11.8671002 10.40740062 -7.92538183 6.36305455 -2 3 C-1.34 2.01 -0.68 1.02 0 0 Z " fill="#B6BDD0" transform="translate(259,213)"/>
<path d="M0 0 C0.63164062 0.20496094 1.26328125 0.40992188 1.9140625 0.62109375 C8.71540339 2.66933618 15.13579738 3.46605585 22.2265625 3.7890625 C25 4 25 4 26 5 C26.04092937 7.33297433 26.04241723 9.66705225 26 12 C25.67 12 25.34 12 25 12 C25 10.02 25 8.04 25 6 C24.42032471 5.99589111 23.84064941 5.99178223 23.2434082 5.98754883 C20.59875891 5.95450723 17.95638161 5.88385736 15.3125 5.8125 C14.40048828 5.80669922 13.48847656 5.80089844 12.54882812 5.79492188 C4.95256696 5.54631696 4.95256696 5.54631696 1.85546875 2.44921875 C1.24316406 1.64097656 0.63085938 0.83273437 0 0 Z " fill="#586994" transform="translate(137,414)"/>
<path d="M0 0 C-1.84303113 0.69548344 -3.68711334 1.388258 -5.53515625 2.0703125 C-7.21970494 2.70568903 -8.89407493 3.36854997 -10.55859375 4.0546875 C-17.38984116 6.7713229 -23.66564971 7.74400173 -31 8 C-27.83825079 5.89216719 -25.54831926 5.282806 -21.875 4.4375 C-18.12980201 3.83335605 -18.12980201 3.83335605 -15 2 C-13.00041636 1.95919217 -10.99954746 1.95745644 -9 2 C-9 1.34 -9 0.68 -9 0 C-2.25 -1.125 -2.25 -1.125 0 0 Z " fill="#6C7CA1" transform="translate(555,406)"/>
<path d="M0 0 C0 3 0 3 -1.375 5.1875 C-5.44879267 8.00035684 -9.19801833 7.58060945 -14 7 C-17.43406469 6.25839318 -20.77917544 5.41846415 -24 4 C-24.33 3.34 -24.66 2.68 -25 2 C-24.154375 2.144375 -23.30875 2.28875 -22.4375 2.4375 C-13.25614011 4.06296917 -13.25614011 4.06296917 -4 4 C-1.49479421 2.16658535 -1.49479421 2.16658535 0 0 Z " fill="#566893" transform="translate(359,206)"/>
<path d="M0 0 C1.65612305 0.01353516 1.65612305 0.01353516 3.34570312 0.02734375 C6.0432017 0.05069872 8.74023077 0.08344946 11.4375 0.125 C11.4375 0.455 11.4375 0.785 11.4375 1.125 C10.80247559 1.14481934 10.16745117 1.16463867 9.51318359 1.18505859 C6.61256674 1.28081122 3.71262095 1.39028546 0.8125 1.5 C-0.68603516 1.54640625 -0.68603516 1.54640625 -2.21484375 1.59375 C-7.38477039 1.79917755 -11.68987904 2.23685938 -16.5625 4.125 C-19.9375 4.25 -19.9375 4.25 -22.5625 4.125 C-22.2325 3.465 -21.9025 2.805 -21.5625 2.125 C-14.3308373 -0.01383716 -7.49859018 -0.11751859 0 0 Z " fill="#9FA9C2" transform="translate(300.5625,200.875)"/>
<path d="M0 0 C0.57492187 0.23976562 1.14984375 0.47953125 1.7421875 0.7265625 C0.48080555 2.06884068 -0.79225809 3.40014927 -2.0703125 4.7265625 C-2.77800781 5.4690625 -3.48570312 6.2115625 -4.21484375 6.9765625 C-6.2578125 8.7265625 -6.2578125 8.7265625 -9.2578125 8.7265625 C-9.5878125 10.0465625 -9.9178125 11.3665625 -10.2578125 12.7265625 C-10.9178125 12.7265625 -11.5778125 12.7265625 -12.2578125 12.7265625 C-10.92376531 8.80693932 -9.28427574 6.29682141 -6.3828125 3.3515625 C-5.70476562 2.64257812 -5.02671875 1.93359375 -4.328125 1.203125 C-2.2578125 -0.2734375 -2.2578125 -0.2734375 0 0 Z " fill="#556792" transform="translate(282.2578125,219.2734375)"/>
<path d="M0 0 C0 0.99 0 1.98 0 3 C-1.32 3 -2.64 3 -4 3 C-4 3.66 -4 4.32 -4 5 C-10.6 5.33 -17.2 5.66 -24 6 C-24 5.34 -24 4.68 -24 4 C-23.10539062 3.96261719 -22.21078125 3.92523438 -21.2890625 3.88671875 C-13.77417573 3.47812683 -7.07804405 2.5931083 0 0 Z " fill="#596B95" transform="translate(87,414)"/>
<path d="M0 0 C-17.47572816 7.63106796 -17.47572816 7.63106796 -24 6 C-21.03 5.34 -18.06 4.68 -15 4 C-15 3.34 -15 2.68 -15 2 C-13.25364835 1.46706165 -11.50272348 0.94909337 -9.75 0.4375 C-8.77546875 0.14746094 -7.8009375 -0.14257812 -6.796875 -0.44140625 C-4.03756068 -0.99249836 -2.6087176 -0.93789609 0 0 Z " fill="#8A96B4" transform="translate(580,415)"/>
<path d="M0 0 C1.26582219 3.86723631 1.1118765 7.73151262 1.0625 11.75 C1.05798828 12.44738281 1.05347656 13.14476562 1.04882812 13.86328125 C1.0371002 15.57555803 1.01916653 17.28779033 1 19 C0.34 19 -0.32 19 -1 19 C-2.53266582 15.93466836 -2.10276471 12.73245728 -2.0625 9.375 C-2.05798828 8.66859375 -2.05347656 7.9621875 -2.04882812 7.234375 C-2.03703875 5.48954725 -2.01910324 3.744763 -2 2 C-1.34 2 -0.68 2 0 2 C0 1.34 0 0.68 0 0 Z " fill="#A3ACC4" transform="translate(267,237)"/>
<path d="M0 0 C1.32 0.33 2.64 0.66 4 1 C4 1.66 4 2.32 4 3 C4.639375 3.268125 5.27875 3.53625 5.9375 3.8125 C8 5 8 5 9 8 C10.65204456 8.70211894 12.31923769 9.36971413 14 10 C14.33 10.66 14.66 11.32 15 12 C11.625 11.25 11.625 11.25 8 10 C6.8125 8 6.8125 8 6 6 C5.34 5.67 4.68 5.34 4 5 C1.50983207 3.75491604 1.01313282 2.53283204 0 0 Z " fill="#8F9BB7" transform="translate(253,297)"/>
<path d="M0 0 C5.06551805 1.2958302 7.43575303 3.25297114 11 7 C12.65661761 8.01656081 14.32111559 9.02065076 16 10 C16.33 10.66 16.66 11.32 17 12 C3.45565956 5.25861237 3.45565956 5.25861237 0 0 Z " fill="#566893" transform="translate(280,271)"/>
<path d="M0 0 C0.66 0.33 1.32 0.66 2 1 C0.90033225 2.29549899 -0.20491801 3.58626071 -1.3125 4.875 C-1.92738281 5.59429687 -2.54226562 6.31359375 -3.17578125 7.0546875 C-5 9 -5 9 -8 11 C-7.91433603 8.087425 -7.42089045 6.43201976 -5.375 4.33203125 C-3.61608625 2.83908228 -1.83686981 1.39563738 0 0 Z " fill="#485B8A" transform="translate(32,228)"/>
<path d="M0 0 C-0.33 1.32 -0.66 2.64 -1 4 C-2.98 4.33 -4.96 4.66 -7 5 C-7 5.66 -7 6.32 -7 7 C-8.98 7.33 -10.96 7.66 -13 8 C-3.28571429 0 -3.28571429 0 0 0 Z " fill="#63739B" transform="translate(601,402)"/>
<path d="M0 0 C2.475 0.99 2.475 0.99 5 2 C5 2.66 5 3.32 5 4 C6.134375 4.268125 7.26875 4.53625 8.4375 4.8125 C9.613125 5.204375 10.78875 5.59625 12 6 C12.33 6.99 12.66 7.98 13 9 C12.01 9 11.02 9 10 9 C10 8.34 10 7.68 10 7 C8.63875 6.9071875 8.63875 6.9071875 7.25 6.8125 C3.25091923 5.81272981 2.20545641 4.39300985 0 1 C0 0.67 0 0.34 0 0 Z " fill="#929DB9" transform="translate(315,338)"/>
<path d="M0 0 C0 0.99 0 1.98 0 3 C-1.63064764 4.05771739 -3.30280873 5.05273046 -5 6 C-5.7734375 6.86625 -5.7734375 6.86625 -6.5625 7.75 C-7.2740625 8.36875 -7.2740625 8.36875 -8 9 C-10.1875 8.6875 -10.1875 8.6875 -12 8 C-8 5.33333333 -4 2.66666667 0 0 Z " fill="#62729A" transform="translate(360,414)"/>
<path d="M0 0 C0.75 1.75 0.75 1.75 1 4 C-0.28817344 5.37701298 -1.62804426 6.70644173 -3 8 C-4.25436187 10.63222962 -4.25436187 10.63222962 -5 13 C-5.66 13 -6.32 13 -7 13 C-5.125 7.25 -5.125 7.25 -4 5 C-3.34 5 -2.68 5 -2 5 C-1.855625 4.360625 -1.71125 3.72125 -1.5625 3.0625 C-1 1 -1 1 0 0 Z " fill="#8C98B5" transform="translate(597,362)"/>
<path d="M0 0 C0.66 0.33 1.32 0.66 2 1 C-0.32446864 4.68040867 -2.07965475 6.2994906 -6.25 7.3125 C-7.4875 7.539375 -8.725 7.76625 -10 8 C-7.92141021 5.81907964 -5.78143382 4.03609531 -3.3125 2.3125 C-2.68988281 1.87550781 -2.06726563 1.43851562 -1.42578125 0.98828125 C-0.95527344 0.66214844 -0.48476563 0.33601563 0 0 Z " fill="#7A88AA" transform="translate(339,406)"/>
<path d="M0 0 C3.33193619 2.69728168 4.60371996 6.02060187 6 10 C5.6875 12.4375 5.6875 12.4375 5 14 C4.34 11.69 3.68 9.38 3 7 C2.34 7 1.68 7 1 7 C0.67 4.69 0.34 2.38 0 0 Z " fill="#9FA9C1" transform="translate(635,268)"/>
<path d="M0 0 C-3.14591933 2.80045623 -5.067064 3.35261589 -9.25 3.1875 C-10.14203125 3.16042969 -11.0340625 3.13335937 -11.953125 3.10546875 C-12.96632813 3.05326172 -12.96632813 3.05326172 -14 3 C-14 2.67 -14 2.34 -14 2 C-12.04396149 1.47061343 -10.08507711 0.95173199 -8.125 0.4375 C-7.03445313 0.14746094 -5.94390625 -0.14257812 -4.8203125 -0.44140625 C-2 -1 -2 -1 0 0 Z " fill="#6E7DA2" transform="translate(343,426)"/>
<path d="M0 0 C0.33 0 0.66 0 1 0 C1.34833144 4.87664009 0.41685712 7.77050005 -2 12 C-3.12377697 8.69564916 -2.89554742 6.9493138 -1.5625 3.75 C-1.27503906 3.04359375 -0.98757812 2.3371875 -0.69140625 1.609375 C-0.46324219 1.07828125 -0.23507813 0.5471875 0 0 Z " fill="#B5BDCF" transform="translate(242,235)"/>
<path d="M0 0 C1.8871875 0.0309375 1.8871875 0.0309375 3.8125 0.0625 C0.77724514 2.08600324 -0.38176202 2.38374018 -3.875 2.6875 C-4.68324219 2.76226562 -5.49148438 2.83703125 -6.32421875 2.9140625 C-6.93910156 2.96304688 -7.55398438 3.01203125 -8.1875 3.0625 C-6.45706736 -0.39836529 -3.47359009 -0.0569441 0 0 Z " fill="#A8B1C7" transform="translate(286.1875,201.9375)"/>
<path d="M0 0 C0.86625 0.4640625 0.86625 0.4640625 1.75 0.9375 C3.92954724 2.07743133 3.92954724 2.07743133 6.1875 2.4375 C6.785625 2.623125 7.38375 2.80875 8 3 C8.33 3.99 8.66 4.98 9 6 C6.1875 5.8125 6.1875 5.8125 3 5 C1.125 2.4375 1.125 2.4375 0 0 Z " fill="#8794B2" transform="translate(271,406)"/>
<path d="M0 0 C1 4 1 4 -0.4375 6.75 C-1.2109375 7.86375 -1.2109375 7.86375 -2 9 C-2.99 8.67 -3.98 8.34 -5 8 C-3.35 5.36 -1.7 2.72 0 0 Z " fill="#9AA5BE" transform="translate(93,405)"/>
<path d="M0 0 C3.375 0.75 3.375 0.75 7 2 C7.66 3.32 8.32 4.64 9 6 C6.03 5.01 3.06 4.02 0 3 C0 2.01 0 1.02 0 0 Z " fill="#8A96B4" transform="translate(297,283)"/>
</svg>
